<?xml version="1.0" encoding="UTF-8"?>
<svg id="Capa_2" data-name="Capa 2" xmlns="http://www.w3.org/2000/svg" viewBox="0 0 132.34 117.28">
  <defs>
    <style>
      .cls-1 {
        fill: #1c7cbf;
      }

      .cls-1, .cls-2, .cls-3 {
        stroke-width: 0px;
      }

      .cls-2 {
        fill: #fff;
      }

      .cls-3 {
        fill: #b25fac;
      }
    </style>
  </defs>
  <g>
    <g>
      <rect class="cls-1" x="56.88" y="24.63" width="41.9" height="3.19"/>
      <rect class="cls-1" x="41.12" y="24.83" width="10.47" height="3.19"/>
    </g>
    <g>
      <rect class="cls-1" x="56.88" y="34.61" width="41.9" height="3.19"/>
      <rect class="cls-1" x="41.12" y="34.81" width="10.47" height="3.19"/>
    </g>
    <g>
      <rect class="cls-1" x="56.88" y="45.28" width="41.9" height="3.19"/>
      <rect class="cls-1" x="41.12" y="45.48" width="10.47" height="3.19"/>
    </g>
    <g>
      <rect class="cls-1" x="56.88" y="57.25" width="41.9" height="3.19"/>
      <rect class="cls-1" x="41.12" y="57.45" width="10.47" height="3.19"/>
    </g>
    <g>
      <rect class="cls-1" x="56.88" y="67.92" width="41.9" height="3.19"/>
      <path class="cls-1" d="M43.61,68.02h7.98v3.19h-10.47v-.7c0-1.3,1.1-2.49,2.49-2.49Z"/>
    </g>
    <path class="cls-1" d="M106.26,109.82H31.44c-6.58,0-11.97-5.39-11.97-11.97V12.76c0-6.58,5.39-11.97,11.97-11.97h74.82c6.58,0,11.97,5.39,11.97,11.97v84.99c0,6.68-5.39,12.07-11.97,12.07ZM31.44,4.78c-4.39,0-7.98,3.59-7.98,7.98v84.99c0,4.39,3.59,7.98,7.98,7.98h74.82c4.39,0,7.98-3.59,7.98-7.98V12.76c0-4.39-3.59-7.98-7.98-7.98H31.44Z"/>
    <rect class="cls-1" x="56.88" y="77.9" width="19.55" height="3.19"/>
    <path class="cls-1" d="M48.4,76.1c.3-.1.6-.1,1-.1s.8.1,1.2.2l.1.2-2.29,3.49,2.49,3.79c-.6.4-1.1.6-1.6.6-.6,0-1-.2-1.4-.8l-1-1.6-1.3,2.19c-.2.1-.6.1-1,.1s-.9-.1-1.2-.2l-.1-.1,2.39-3.79-2.29-3.49c.5-.4,1.1-.5,1.7-.5.3,0,.5.1.7.2.2.1.4.3.5.6l.8,1.3,1.3-2.09Z"/>
    <g>
      <path class="cls-3" d="M99.52,83.84l-1.5,6.98,7.18-.4,7.48-6.48,17.56-15.36-5.69-6.58-25.04,21.85Z"/>
      <path class="cls-3" d="M96.13,92.31l2-9.38,26.54-23.24,7.68,8.78-26.54,23.24-9.68.6Z"/>
    </g>
  </g>
  <g>
    <rect class="cls-3" x="1" y="54.97" width="61.57" height="61.57" rx="13.59" ry="13.59"/>
    <path class="cls-2" d="M31.79,64.12c-11.93,0-21.64,9.71-21.64,21.64s9.71,21.64,21.64,21.64,21.64-9.71,21.64-21.64-9.71-21.64-21.64-21.64ZM31.79,69.53c3.5,0,6.73,1.12,9.39,3.01l-22.6,22.6c-1.89-2.65-3.01-5.89-3.01-9.39,0-8.95,7.28-16.23,16.23-16.23ZM31.79,101.98c-3.5,0-6.73-1.12-9.39-3.01l22.6-22.6c1.89,2.65,3.02,5.89,3.02,9.39,0,8.95-7.28,16.23-16.23,16.23Z"/>
  </g>
  <path class="cls-1" d="M82.28,90.63c.06-.16.11-.31.17-.47-.14.36.06-.14.09-.2.16-.34.33-.67.51-1s.38-.65.59-.96c.09-.14.19-.28.29-.42.04-.05.36-.47.14-.2.45-.56.95-1.09,1.47-1.59.28-.27.57-.52.87-.76s.03-.03.21-.16.35-.25.53-.37l-3.67-1.49c.17.57.19.7.21,1.12.02.52-.01,1.03-.07,1.55-.1,1.04-.29,2.08-.36,3.13-.1,1.63.19,3.38,1.97,3.96,1.45.47,2.72-.38,3.96-1.03.45-.24.91-.45,1.34-.71.31-.14.36-.18.16-.11l-1.08-.15c-.45-.52-.59-.65-.42-.37.09.16.07.12-.05-.11-.14-.33-.01-.09,0,.16.01.21.03.42.06.63.09.78.26,1.48.7,2.14,1.55,2.35,4.51,2.22,6.89,1.52,1.29-.38,2.11-1.75,1.75-3.08s-1.78-2.13-3.08-1.75c-.32.1-.64.19-.97.27-.38.09-.31.11-.61.06.53.09-.25-.02-.24-.08.01-.14.47.37.46.36.11.22.08.43.06.06s-.05-.72-.1-1.09c-.09-.68-.32-1.31-.71-1.87-1.14-1.65-3.05-2-4.82-1.17-.54.25-1.06.55-1.58.83-.27.14-.54.28-.8.42-.18.09-.36.19-.54.28-.3.19-.35.2-.15.04h1.33l-.22-.07,1.49,1.15c.15.67.21.76.18.29,0-.19.01-.38.02-.57.02-.29.05-.57.08-.85.07-.67.18-1.33.25-1.99.16-1.44.13-2.89-.29-4.28s-2.3-2.43-3.67-1.49c-3.32,2.26-5.8,5.34-7.18,9.12-.45,1.23.5,2.79,1.75,3.08,1.41.32,2.59-.43,3.08-1.75h0Z"/>
</svg>