<?xml version="1.0" encoding="UTF-8"?>
<svg id="Capa_2" data-name="Capa 2" xmlns="http://www.w3.org/2000/svg" viewBox="0 0 123.84 123.85">
  <defs>
    <style>
      .cls-1 {
        fill: #88bc69;
      }

      .cls-1, .cls-2, .cls-3, .cls-4, .cls-5, .cls-6, .cls-7, .cls-8, .cls-9, .cls-10, .cls-11, .cls-12, .cls-13, .cls-14, .cls-15, .cls-16 {
        stroke-width: 0px;
      }

      .cls-2 {
        fill: #e6efdf;
      }

      .cls-3 {
        fill: #9085da;
      }

      .cls-4 {
        fill: #f5f5f5;
      }

      .cls-5 {
        fill: none;
      }

      .cls-6 {
        fill: #d9d7f4;
      }

      .cls-7 {
        fill: #e1e8ea;
      }

      .cls-8 {
        fill: #f8feff;
      }

      .cls-9 {
        fill: #b6c3d6;
      }

      .cls-10 {
        fill: #7fcbe2;
      }

      .cls-11 {
        fill: #824e80;
      }

      .cls-12 {
        fill: #bab3e8;
      }

      .cls-13 {
        fill: #42a5cc;
      }

      .cls-14 {
        fill: #b1d39b;
      }

      .cls-15 {
        fill: #fafbfb;
      }

      .cls-16 {
        fill: #b25fac;
      }
    </style>
  </defs>
  <path class="cls-14" d="M40.51,80.5c1.14,1.14,2.28,2.28,3.42,3.42-2.98,3.11-5.96,6.23-8.94,9.34-1.13-1.56-2.25-3.13-3.38-4.69.92-.7,1.9-1.34,2.74-2.12,2.09-1.95,4.11-3.96,6.16-5.95Z"/>
  <path class="cls-10" d="M88.36,32.36c1.25,1.25,2.51,2.51,3.76,3.76-3.28,3.42-6.55,6.84-9.83,10.26-1.24-1.72-2.47-3.44-3.71-5.15,1.01-.77,2.09-1.47,3.01-2.33,2.29-2.14,4.52-4.35,6.77-6.54Z"/>
  <path class="cls-12" d="M31.02,35.75c1.15-1.15,2.3-2.3,3.45-3.45,3.88,3.81,7.76,7.62,11.65,11.42.71.7,1.48,1.34,2.23,2.01-1.3,1.3-2.6,2.59-3.9,3.89-3.65-3.73-7.31-7.46-10.96-11.2-.85-.87-1.65-1.78-2.47-2.67Z"/>
  <g>
    <g>
      <path class="cls-14" d="M9.02,87.5c5.96-3.78,12.24-4.41,18.68-1.51,7.87,3.55,12.5,11.01,11.68,19.58-.3,3.13-1.35,6.46-3.12,9.17-.99.2-1.97.39-2.95.61-2.86.66-5.69,1.7-8.66.54-2.65-.59-8.94-1.21-14-8.6-3.73-5.67-4.07-11.69-1.87-17.99.2-.56.16-1.21.24-1.81Z"/>
      <path class="cls-1" d="M37.08,112.7c.98-.23-1.8,2.25-.81,2.05-5.29,8.81-17.65,11.8-26.41,6.41C1.4,116.43-.99,105.64.46,99.48c1.21-5.11,4.02-9.19,8.57-11.98-.07.61,2.7-1.96,2.5-1.39-2.2,6.3-1.14,30.14,25.55,26.59Z"/>
      <path class="cls-8" d="M19.19,114.09c-3.55,0-7.1,0-10.66,0-1.35,0-1.79-.44-1.79-1.79,0-1.66,0-3.31,0-4.97,0-.97.36-1.47,1.28-1.73,1.47-.42,2.94-.83,4.41-1.21.4-.1.54-.28.54-.69-.01-2.99,0-5.98-.02-8.97,0-.6.2-.97.71-1.29,1.57-1,3.11-2.05,4.67-3.07.55-.36,1.14-.36,1.68-.03,1.67,1.02,3.32,2.08,4.99,3.11.33.21.43.46.43.83,0,3.07,0,6.14-.02,9.21,0,.46.14.63.57.75,1.41.38,2.81.8,4.2,1.24,1.03.32,1.46.93,1.46,2,0,1.49,0,2.99,0,4.48,0,.21,0,.42-.02.63-.08,1.05-.55,1.51-1.6,1.51-3.62,0-7.23,0-10.85,0ZM19.36,102.08c0-3.1,0-6.2,0-9.31,0-.65-.35-.86-.93-.55-1.13.6-2.26,1.22-3.39,1.83-.34.18-.52.45-.51.85.02.56,0,1.12,0,1.69,0,5,0,10,0,15,0,.76.19.94.94.94.92,0,1.83,0,2.75,0,.79,0,1.13-.35,1.13-1.14,0-3.1,0-6.2,0-9.31ZM30.09,111.27c.01-.46,0-.92-.55-1.1-1.13-.36-2.26-.73-3.39-1.08-.45-.14-.68.04-.71.5-.01.27-.06.56.02.81.07.23.24.54.43.6,1.21.39,2.43.72,3.65,1.07.35.1.51-.08.55-.41.01-.13,0-.26,0-.39ZM30.1,107.94c0-.74-.09-.88-.79-1.11-.87-.29-1.74-.55-2.6-.83-1.16-.38-1.27-.3-1.26.91,0,.68.14.84.79.99,1.01.23,2.03.46,3.04.69.7.16.83.06.83-.65Z"/>
      <path class="cls-8" d="M17.33,95.98c.29-.15.57-.28.85-.44.34-.19.44-.59.25-.97-.19-.38-.58-.54-.93-.36-.57.28-1.13.57-1.69.86-.35.18-.45.58-.27.96.19.39.58.55.95.37.28-.13.56-.28.83-.42Z"/>
      <path class="cls-8" d="M17.33,99.26c.29-.15.57-.28.85-.44.34-.19.44-.59.25-.97-.19-.38-.58-.54-.93-.36-.57.28-1.13.57-1.69.86-.35.18-.45.58-.27.96.19.39.58.55.95.37.28-.13.56-.28.83-.42Z"/>
      <path class="cls-8" d="M17.33,102.53c.29-.15.57-.28.85-.44.34-.19.44-.59.25-.97-.19-.38-.58-.54-.93-.36-.57.28-1.13.57-1.69.86-.35.18-.45.58-.27.96.19.39.58.55.95.37.28-.13.56-.28.83-.42Z"/>
    </g>
    <path class="cls-8" d="M19.19,114.09c-3.55,0-7.1,0-10.66,0-1.35,0-1.79-.44-1.79-1.79,0-1.66,0-3.31,0-4.97,0-.97.36-1.47,1.28-1.73,1.47-.42,2.94-.83,4.41-1.21.4-.1.54-.28.54-.69-.01-2.99,0-5.98-.02-8.97,0-.6.2-.97.71-1.29,1.57-1,3.11-2.05,4.67-3.07.55-.36,1.14-.36,1.68-.03,1.67,1.02,3.32,2.08,4.99,3.11.33.21.43.46.43.83,0,3.07,0,6.14-.02,9.21,0,.46.14.63.57.75,1.41.38,2.81.8,4.2,1.24,1.03.32,1.46.93,1.46,2,0,1.49,0,2.99,0,4.48,0,.21,0,.42-.02.63-.08,1.05-.55,1.51-1.6,1.51-3.62,0-7.23,0-10.85,0ZM19.36,102.08c0-3.1,0-6.2,0-9.31,0-.65-.35-.86-.93-.55-1.13.6-2.26,1.22-3.39,1.83-.34.18-.52.45-.51.85.02.56,0,1.12,0,1.69,0,5,0,10,0,15,0,.76.19.94.94.94.92,0,1.83,0,2.75,0,.79,0,1.13-.35,1.13-1.14,0-3.1,0-6.2,0-9.31ZM30.09,111.27c.01-.46,0-.92-.55-1.1-1.13-.36-2.26-.73-3.39-1.08-.45-.14-.68.04-.71.5-.01.27-.06.56.02.81.07.23.24.54.43.6,1.21.39,2.43.72,3.65,1.07.35.1.51-.08.55-.41.01-.13,0-.26,0-.39ZM30.1,107.94c0-.74-.09-.88-.79-1.11-.87-.29-1.74-.55-2.6-.83-1.16-.38-1.27-.3-1.26.91,0,.68.14.84.79.99,1.01.23,2.03.46,3.04.69.7.16.83.06.83-.65Z"/>
    <path class="cls-2" d="M30.1,114.08c.87,0,1.33-.34,1.51-1.04-5.2-.06-9.18-1.35-12.19-3.36,0,.57,0,1.13,0,1.7,0,.79-.34,1.14-1.13,1.14-.92,0-1.83,0-2.75,0-.76,0-.94-.18-.94-.94,0-2.24,0-4.48,0-6.72-.6-.89-1.12-1.82-1.56-2.77,0,.54,0,1.07,0,1.61,0,.41-.14.59-.54.69-1.48.38-2.95.79-4.41,1.21-.91.26-1.27.76-1.28,1.73,0,1.66,0,3.31,0,4.97,0,1.35.44,1.79,1.79,1.79,3.55,0,7.1,0,10.66,0,3.62,0,7.23,0,10.85,0Z"/>
  </g>
  <path class="cls-9" d="M60.99,26.11c-2.77-1.28-3.88-3.87-2.77-6.48.96-2.27,3.65-3.36,6.09-2.47,1.66.6,2.91,2.32,3,4.13.11,2.2-.94,3.81-3.16,4.83-1.06,0-2.11,0-3.17,0Z"/>
  <path class="cls-9" d="M24.13,63.14c-1.28,2.77-3.87,3.88-6.48,2.77-2.27-.97-3.36-3.64-2.47-6.09.61-1.67,2.32-2.91,4.13-3,2.2-.11,3.79.93,4.82,3.16,0,1.06,0,2.11,0,3.17Z"/>
  <path class="cls-9" d="M97.88,64.76c1.95-2.8,4.54-3.57,6.92-2.07,1.74,1.1,2.57,3.08,2.14,5.11-.41,1.93-2.1,3.42-4.17,3.66-1.94.23-3.84-.81-4.74-2.63-.17-.35-.29-.73-.43-1.1.09-.99.18-1.98.27-2.97Z"/>
  <path class="cls-9" d="M69.18,96.73c2.08.29,3.61,1.3,4.24,3.38.56,1.83.17,3.46-1.21,4.81-1.84,1.82-4.77,1.82-6.61.01-1.9-1.86-1.96-4.81-.12-6.7.24-.25.52-.47.78-.7.97-.26,1.95-.53,2.92-.79Z"/>
  <path class="cls-9" d="M97.88,64.76c-.09.99-.18,1.98-.27,2.97-1.19-.24-2.38-.45-3.56-.74-1.31-.32-2.6-.7-3.9-1.06-.07-1.12-.14-2.24-.2-3.37,2.64.73,5.29,1.46,7.93,2.19Z"/>
  <path class="cls-9" d="M69.18,96.73c-.97.26-1.95.53-2.92.79-.53-2.35-1.06-4.7-1.59-7.04,1.03-.15,2.06-.29,3.09-.44.36,1.51.73,3.01,1.06,4.53.16.71.24,1.44.35,2.16Z"/>
  <path class="cls-9" d="M60.99,25.11c1.06,0,2.11,0,3.17,0,0,2.17,0,4.34.01,6.51-1.06,0-2.13,0-3.19,0,0-2.17,0-4.34.01-6.51Z"/>
  <path class="cls-9" d="M22.67,63.37c0-1.13,0-2.26,0-3.39,2.99,0,5.97,0,8.96-.01,0,1.14,0,2.28,0,3.42-2.99,0-5.98,0-8.97-.01Z"/>
  <g>
    <path class="cls-12" d="M9.1,3.57C14.99-.16,21.19-.78,27.55,2.08c7.78,3.5,12.34,10.88,11.53,19.34-.29,3.09-1.33,6.38-3.08,9.06-.97.2-1.95.38-2.92.6-2.82.65-5.62,1.68-8.55.53-2.61-.58-8.83-1.2-13.82-8.49-3.68-5.6-4.02-11.54-1.85-17.76.19-.56.16-1.19.24-1.79Z"/>
    <path class="cls-3" d="M36.8,28.6c.97-.22-1.77,2.08-.8,1.88-5.22,8.69-17.42,11.66-26.07,6.33C1.58,32.13-.79,21.48.65,15.4,1.84,10.35,4.62,6.33,9.1,3.57c-.07.6,3.21-2.18,3.02-1.62-2.17,6.22-1.67,30.15,24.68,26.65Z"/>
    <path class="cls-8" d="M24.17,20.18c0,.95,0,1.89,0,2.84,0,.93-.32,1.42-1.18,1.76-.23.09-.19.25-.19.41,0,2.27,0,4.54,0,6.81,0,.3-.03.62-.14.89-.26.63-.77.97-1.45.98-1.36.02-2.72.02-4.08,0-.96-.01-1.62-.73-1.62-1.74,0-2.09,0-4.17,0-6.26,0-.15-.01-.29,0-.44.03-.36-.01-.6-.44-.76-.61-.24-.92-.77-.92-1.44,0-2-.01-4,0-6.01.01-1.7,1.43-3.13,3.13-3.16,1.24-.02,2.48-.02,3.71,0,1.65.03,3.05,1.34,3.14,3,.06,1.04.01,2.09.01,3.13h.02Z"/>
    <path class="cls-8" d="M15.51,9.52c0-2.02,1.65-3.64,3.67-3.63,2,.01,3.63,1.66,3.61,3.66-.01,2.03-1.65,3.64-3.68,3.63-2-.01-3.62-1.65-3.61-3.66Z"/>
    <path class="cls-6" d="M22.65,32.88c.11-.27.14-.59.14-.89,0-1.55,0-3.09,0-4.64-4.13-1.67-6.88-4.5-8.65-7.72,0,1.19,0,2.39,0,3.58,0,.67.3,1.21.92,1.44.42.16.47.41.44.76-.01.14,0,.29,0,.44,0,2.09,0,4.17,0,6.26,0,1.01.66,1.72,1.62,1.74,1.36.02,2.72.02,4.08,0,.68,0,1.19-.35,1.45-.98Z"/>
  </g>
  <path class="cls-5" d="M101.5,30.67c-.54,0-1.01,0-1.48,0-1.29-.02-2.14-1.12-1.82-2.37.67-2.63,1.34-5.26,2.01-7.9.35-1.37,1.59-2.36,3-2.38,1.23-.01,2.46-.01,3.69,0,1.35.01,2.57.9,2.93,2.21.51,1.83.96,3.68,1.43,5.52.2.79.4,1.58.61,2.37.28,1.07-.09,1.98-1,2.38-.24.11-.52.14-.79.15-.47.02-.94,0-1.45,0,0,.16-.02.29-.02.43,0,1.47,0,2.93,0,4.4,0,1.22-.62,1.83-1.84,1.83-1.18,0-2.37,0-3.55,0-1.07,0-1.72-.65-1.72-1.73,0-1.49,0-2.98,0-4.47,0-.14,0-.28,0-.46Z"/>
  <g>
    <path class="cls-10" d="M93.45,3.92c6.04-3.83,12.4-4.46,18.92-1.53,7.97,3.59,12.65,11.15,11.83,19.83-.3,3.17-1.37,6.54-3.16,9.29-1,.21-2,.39-2.99.62-2.89.67-5.76,1.72-8.77.55-2.68-.59-9.06-1.23-14.18-8.71-3.77-5.75-4.13-11.84-1.89-18.22.2-.57.17-1.22.24-1.84Z"/>
    <path class="cls-13" d="M122.16,28.94c.99-.23-2.11,2.78-1.11,2.58-5.35,8.92-17.87,11.95-26.74,6.49-8.57-4.79-10.99-15.72-9.52-21.95,1.22-5.18,4.08-9.31,8.67-12.13-.08.61,3.21-2.2,3.01-1.63-2.23,6.38-1.34,30.24,25.69,26.65Z"/>
    <g>
      <path class="cls-8" d="M100.77,28.44c-.57,0-1.06,0-1.56,0-1.35-.02-2.25-1.18-1.91-2.49.7-2.77,1.41-5.54,2.12-8.31.37-1.44,1.67-2.49,3.16-2.5,1.3-.01,2.59-.01,3.89,0,1.42.02,2.71.95,3.09,2.33.53,1.93,1.01,3.88,1.51,5.81.21.83.43,1.66.64,2.49.29,1.13-.09,2.08-1.06,2.5-.25.11-.55.15-.83.16-.5.03-.99,0-1.53,0,0,.17-.02.31-.02.45,0,1.54,0,3.09,0,4.63,0,1.28-.65,1.93-1.93,1.93-1.25,0-2.49,0-3.74,0-1.13,0-1.81-.69-1.82-1.82,0-1.57,0-3.14,0-4.71,0-.15,0-.29,0-.49Z"/>
      <path class="cls-8" d="M100.78,10.49c0-2.07,1.69-3.74,3.76-3.73,2.05.01,3.72,1.7,3.71,3.75-.01,2.08-1.69,3.74-3.77,3.73-2.05,0-3.71-1.69-3.71-3.75Z"/>
    </g>
    <path class="cls-7" d="M108.26,33.52c0-1.54,0-3.09,0-4.63,0-.14.01-.29.02-.45.54,0,1.04.02,1.53,0,0,0,.01,0,.02,0-5.42-1.46-8.9-4.62-11.06-8.3-.49,1.94-.99,3.87-1.48,5.81-.33,1.31.56,2.48,1.91,2.49.5,0,.99,0,1.56,0v.49c0,1.57,0,3.14,0,4.71,0,1.13.69,1.82,1.82,1.82,1.25,0,2.49,0,3.74,0,1.28,0,1.93-.65,1.93-1.93Z"/>
  </g>
  <path class="cls-16" d="M63.52,91.14c-4.23.07-8.38-.27-12.41-1.72-4.46-1.6-8.27-4.16-11.63-7.45-.76-.88-1.53-1.76-2.29-2.64-2.33-3.41-4.3-6.99-5.17-11.07-.37-1.76-.57-3.56-.85-5.34,0-1.18,0-2.37,0-3.55.46-6.88,3.03-12.89,7.44-18.15.89-.88,1.77-1.77,2.66-2.65.18-.11.37-.22.55-.32-.14.45-.2.96-.44,1.34-4.65,7.26-5.88,15.1-3.94,23.45.25,1.08.86,2.08,1.3,3.11.57,1.55,1.03,3.16,1.74,4.64,3.22,6.71,8.59,10.84,15.7,12.81.38.25.73.62,1.15.74,4.04,1.16,8.1,1.8,12.35,1.24,4.11-.54,7.99-1.61,11.53-3.75,1.45-.88,2.9-1.59,4.65-1.3,3.41,3.49,6.81,7.01,10.25,10.48,5.93,5.97,12.24,12.14,18.18,18.09.28.28.56.55.81.84,1.41,1.62,1.4,3.78-.03,5.14-1.43,1.36-3.57,1.29-5.12-.25-7-6.97-14.33-14.2-21.31-21.18-2.18-2.18-4.35-4.37-6.54-6.53-1.57-1.55-3.08-1.81-4.89-.65-3.17,2.04-6.64,3.27-10.26,4.17-1.15.16-2.29.33-3.44.49Z"/>
  <path class="cls-11" d="M38.73,66.15c-.44-1.03-1.05-2.03-1.3-3.11-1.94-8.35-.71-16.19,3.94-23.45.25-.39.3-.89.44-1.34,4.12-3.68,8.98-5.8,14.39-6.73,1.06-.18,2.13-.26,3.2-.39,1.19,0,2.37,0,3.56,0,8.67.64,15.78,4.34,21.42,10.92.78,1.08,1.56,2.17,2.34,3.25,3.08,5.25,4.66,10.89,4.41,17.01-.03.68-.1,1.36-.15,2.03-.18,1.24-.37,2.48-.55,3.72-1.35,3.12-2.76,6.21-4.03,9.37-.38.95-.36,2.06-.53,3.1-1.75-.29-3.19.42-4.65,1.3-3.54,2.14-7.42,3.21-11.53,3.75-4.25.56-8.31-.08-12.35-1.24-.42-.12-.77-.49-1.15-.74,2.67.07,5.37.45,8,.15,13.04-1.48,22.05-14.1,19.49-26.99-2.37-11.93-13.74-20.04-25.51-18.25-9.26,1.41-15.44,6.63-18.67,15.37-1.48,4-1.44,8.13-.75,12.28ZM75.54,40.73c.46-.47,1.24-.91,1.32-1.46.09-.62-.24-1.6-.73-1.97-1.08-.81-2.34-1.4-3.58-1.97-1.03-.47-1.97-.2-2.41.92-.43,1.09.06,1.87,1.08,2.38.96.48,1.9,1,2.85,1.48.39.19.8.34,1.46.61Z"/>
  <path class="cls-4" d="M38.73,66.15c-.69-4.15-.73-8.28.75-12.28,3.23-8.74,9.41-13.96,18.67-15.37,11.77-1.79,23.15,6.32,25.51,18.25,2.56,12.89-6.45,25.51-19.49,26.99-2.63.3-5.33-.08-8-.15-7.12-1.96-12.48-6.1-15.7-12.81-.71-1.48-1.17-3.09-1.74-4.64Z"/>
  <path class="cls-15" d="M75.49,41.63c-.65-.27-1.05-.41-1.42-.6-.93-.47-1.84-.97-2.78-1.44-.99-.49-1.47-1.25-1.05-2.32.43-1.09,1.34-1.34,2.34-.89,1.21.55,2.43,1.12,3.48,1.91.48.36.8,1.31.71,1.91-.08.53-.84.96-1.29,1.42Z"/>
  <g>
    <path class="cls-16" d="M46.33,58.67c.76.57,1.45,1.17,2.21,1.67,2.11,1.39,4.46,2.08,6.99,2.12,1.45.02,2.91,0,4.36,0,.16,0,.31,0,.52,0,0,.42,0,.81,0,1.19.01.53.31.88.76.89.47.01.78-.35.79-.9,0-.38,0-.75,0-1.18.2,0,.37,0,.54,0,1.83-.02,3.67.04,5.49-.09,2.94-.21,5.48-1.43,7.66-3.4.11-.1.22-.2.4-.36.01.24.02.38.02.52,0,4.08,0,8.17,0,12.25,0,1.64-.76,2.84-2.19,3.38-.42.16-.91.23-1.36.23-7.56.01-15.11.02-22.67,0-2.05,0-3.53-1.41-3.54-3.45-.03-4.23,0-8.46,0-12.69,0-.06.01-.11.02-.19Z"/>
    <path class="cls-16" d="M61.94,60.95c0-.44,0-.81,0-1.19-.02-.58-.31-.89-.79-.89-.49,0-.75.32-.76.92,0,.36,0,.72,0,1.1-.11.02-.19.06-.27.06-1.77-.01-3.55.06-5.32-.07-3.43-.24-6.2-1.81-8.34-4.48-.07-.09-.13-.2-.14-.31-.23-2.55,1.45-4.08,3.43-4.08,7.63-.01,15.26-.01,22.89,0,2,0,3.35,1.43,3.38,3.44,0,.5-.08.9-.43,1.3-2.41,2.76-5.44,4.14-9.08,4.18-1.49.02-2.99,0-4.56,0Z"/>
    <path class="cls-16" d="M53.32,50.44c.44-1.24.79-2.46,1.29-3.61.46-1.06,1.39-1.59,2.54-1.6,2.69-.02,5.37-.02,8.06,0,1.3,0,2.27.73,2.71,1.95.35,1,.68,2,1.02,3.01.02.07.03.14.06.28-.5,0-.97.02-1.44-.01-.1,0-.23-.16-.27-.27-.27-.75-.52-1.51-.77-2.27-.27-.82-.66-1.12-1.54-1.13-2.53,0-5.05,0-7.58,0-.89,0-1.29.3-1.57,1.14-.25.74-.52,1.48-.76,2.22-.07.22-.17.3-.4.29-.43-.02-.86,0-1.36,0Z"/>
  </g>
</svg>